<svg xmlns:inkscape="http://www.inkscape.org/namespaces/inkscape" xmlns:sodipodi="http://sodipodi.sourceforge.net/DTD/sodipodi-0.dtd" xmlns="http://www.w3.org/2000/svg" xmlns:svg="http://www.w3.org/2000/svg" width="220.60809mm" height="46.072746mm" viewBox="0 0 220.60809 46.072746" id="svg1" inkscape:version="1.3.2 (1:1.3.2+202311252150+091e20ef0f)" sodipodi:docname="argendata-logo.svg"><defs id="defs1"><clipPath clipPathUnits="userSpaceOnUse" id="clipPath572"><path d="M 0,2940.5 H 1440 V 0 H 0 Z" transform="translate(-778.32639,-2446.3971)" id="path572"></path></clipPath><clipPath clipPathUnits="userSpaceOnUse" id="clipPath574"><path d="M 0,2940.5 H 1440 V 0 H 0 Z" transform="translate(-445.39861,-2511.9403)" id="path574"></path></clipPath><clipPath clipPathUnits="userSpaceOnUse" id="clipPath576"><path d="M 0,2940.5 H 1440 V 0 H 0 Z" transform="translate(-500.90812,-2549.9066)" id="path576"></path></clipPath><clipPath clipPathUnits="userSpaceOnUse" id="clipPath578"><path d="M 0,2940.5 H 1440 V 0 H 0 Z" transform="translate(-584.65331,-2516.8741)" id="path578"></path></clipPath><clipPath clipPathUnits="userSpaceOnUse" id="clipPath580"><path d="M 0,2940.5 H 1440 V 0 H 0 Z" transform="translate(-664.97111,-2521.2604)" id="path580"></path></clipPath><clipPath clipPathUnits="userSpaceOnUse" id="clipPath582"><path d="M 0,2940.5 H 1440 V 0 H 0 Z" transform="translate(-708.55472,-2549.9066)" id="path582"></path></clipPath><clipPath clipPathUnits="userSpaceOnUse" id="clipPath584"><path d="M 0,2940.5 H 1440 V 0 H 0 Z" transform="translate(-821.49362,-2515.777)" id="path584"></path></clipPath><clipPath clipPathUnits="userSpaceOnUse" id="clipPath586"><path d="M 0,2940.5 H 1440 V 0 H 0 Z" transform="translate(-885.63752,-2511.9403)" id="path586"></path></clipPath><clipPath clipPathUnits="userSpaceOnUse" id="clipPath588"><path d="M 0,2940.5 H 1440 V 0 H 0 Z" transform="translate(-919.08032,-2537.5704)" id="path588"></path></clipPath><clipPath clipPathUnits="userSpaceOnUse" id="clipPath590"><path d="M 0,2940.5 H 1440 V 0 H 0 Z" transform="translate(-1006.7994,-2511.9403)" id="path590"></path></clipPath></defs><g inkscape:label="Layer 1" inkscape:groupmode="layer" id="layer1" transform="translate(5.2916718,-125.41249)"><path id="path571" d="M 0,0 H 255" style="fill:none;stroke:#000000;stroke-width:1;stroke-linecap:butt;stroke-linejoin:miter;stroke-miterlimit:10;stroke-dasharray:none;stroke-opacity:1" transform="matrix(0.35277776,0,0,-0.35277776,125.35809,171.30885)" clip-path="url(#clipPath572)"></path><path id="path573" d="m 0,0 c -4.661,-0.274 -8.429,-0.778 -11.308,-1.509 -2.878,-0.731 -5.094,-1.667 -6.648,-2.809 -1.554,-1.143 -2.582,-2.467 -3.083,-3.975 -0.503,-1.508 -0.754,-3.13 -0.754,-4.866 0,-3.107 0.981,-5.529 2.946,-7.264 1.964,-1.737 4.866,-2.604 8.704,-2.604 6.854,0 11.925,1.735 15.214,5.208 3.29,3.472 4.935,8.177 4.935,14.117 V 0.41 Z m 10.28,-23.987 c -2.652,-3.199 -5.894,-5.848 -9.731,-7.95 -3.838,-2.1 -8.499,-3.151 -13.981,-3.151 -3.382,0 -6.534,0.434 -9.457,1.302 -2.925,0.867 -5.462,2.169 -7.607,3.906 -2.148,1.734 -3.838,3.952 -5.072,6.647 -1.233,2.695 -1.85,5.871 -1.85,9.526 0,4.934 1.096,8.931 3.289,11.993 2.194,3.06 5.048,5.46 8.567,7.196 3.516,1.735 7.47,2.947 11.856,3.632 4.386,0.686 8.772,1.118 13.157,1.302 l 10.555,0.549 v 3.015 c 0,5.39 -1.302,9.115 -3.907,11.171 -2.604,2.056 -6.009,3.084 -10.211,3.084 -4.844,0 -8.429,-0.823 -10.76,-2.468 -2.329,-1.644 -3.86,-4.022 -4.591,-7.127 l -14.254,1.508 c 1.278,6.942 4.43,12.014 9.457,15.214 5.024,3.197 11.925,4.796 20.697,4.796 5.664,0 10.348,-0.731 14.048,-2.192 3.701,-1.463 6.648,-3.474 8.841,-6.031 2.193,-2.559 3.721,-5.598 4.591,-9.115 0.868,-3.518 1.303,-7.38 1.303,-11.581 V -33.307 H 10.28 Z" style="fill:#000000;fill-opacity:1;fill-rule:nonzero;stroke:none" transform="matrix(0.35277776,0,0,-0.35277776,7.9085664,148.18666)" clip-path="url(#clipPath574)"></path><path id="path575" d="m 0,0 v -10.554 c 2.467,3.745 5.436,6.624 8.91,8.635 3.471,2.009 7.172,3.015 11.102,3.015 1.552,0 2.854,-0.047 3.906,-0.137 1.049,-0.092 2.077,-0.23 3.084,-0.412 L 25.22,-13.707 c -1.006,0.275 -2.103,0.457 -3.289,0.548 -1.189,0.09 -2.423,0.137 -3.701,0.137 -2.926,0 -5.482,-0.479 -7.676,-1.438 C 8.361,-15.42 6.51,-16.677 5.003,-18.23 3.495,-19.785 2.352,-21.543 1.577,-23.507 0.799,-25.473 0.411,-27.46 0.411,-29.469 V -71.273 H -15.077 V 0 Z" style="fill:#000000;fill-opacity:1;fill-rule:nonzero;stroke:none" transform="matrix(0.35277776,0,0,-0.35277776,27.491085,134.79299)" clip-path="url(#clipPath576)"></path><path id="path577" d="m 0,0 c 0,7.401 -1.555,12.998 -4.661,16.791 -3.107,3.79 -7.675,5.687 -13.705,5.687 -5.667,0 -10.098,-1.987 -13.295,-5.962 -3.2,-3.975 -4.798,-9.711 -4.798,-17.202 0,-7.401 1.53,-13.136 4.592,-17.2 3.061,-4.068 7.333,-6.1 12.815,-6.1 6.031,0 10.713,1.895 14.049,5.688 C -1.669,-14.507 0,-9.138 0,-2.193 Z m -34.266,-43.723 c 0.822,-3.838 2.444,-6.51 4.866,-8.018 2.42,-1.508 6.373,-2.262 11.856,-2.262 4.202,0 7.583,0.823 10.143,2.467 2.556,1.645 4.407,4.16 5.55,7.539 1.142,3.381 1.714,8.039 1.714,13.981 v 4.796 c -2.56,-3.655 -5.757,-6.441 -9.595,-8.36 -3.837,-1.919 -8.179,-2.879 -13.02,-2.879 -9.595,0 -16.996,3.152 -22.204,9.458 -5.209,6.305 -7.813,15.029 -7.813,26.178 0,10.874 2.831,19.6 8.497,26.18 5.665,6.578 13.248,9.868 22.753,9.868 8.955,0 16.219,-3.611 21.793,-10.828 v 8.635 H 15.488 V -27.55 c 0,-13.706 -2.652,-23.596 -7.95,-29.674 -5.3,-6.075 -13.661,-9.114 -25.082,-9.114 -10.326,0 -18.071,1.805 -23.232,5.413 -5.163,3.611 -8.202,9.344 -9.115,17.202 z" style="fill:#000000;fill-opacity:1;fill-rule:nonzero;stroke:none" transform="matrix(0.35277776,0,0,-0.35277776,57.034528,146.44613)" clip-path="url(#clipPath578)"></path><path id="path579" d="m 0,0 c 0,5.847 -1.371,10.461 -4.112,13.843 -2.742,3.38 -7.128,5.072 -13.158,5.072 -5.757,0 -10.143,-1.714 -13.158,-5.14 C -33.444,10.348 -35.181,5.757 -35.637,0 Z M 14.254,-21.519 C 12.974,-28.92 9.82,-34.656 4.797,-38.721 -0.229,-42.785 -7.45,-44.82 -16.86,-44.82 c -11.331,0 -19.942,3.266 -25.836,9.801 -5.893,6.531 -8.84,15.738 -8.84,27.617 0,6.121 0.844,11.558 2.536,16.311 1.689,4.749 4.065,8.748 7.127,11.993 3.06,3.242 6.716,5.709 10.965,7.401 4.249,1.689 8.93,2.535 14.048,2.535 5.484,0 10.233,-0.846 14.255,-2.535 4.02,-1.692 7.354,-4.067 10.006,-7.127 2.649,-3.062 4.613,-6.716 5.894,-10.965 1.278,-4.249 1.919,-8.978 1.919,-14.186 v -6.854 h -51.125 c 0.182,-6.488 1.826,-11.742 4.934,-15.761 3.105,-4.022 7.813,-6.031 14.117,-6.031 4.935,0 8.636,0.959 11.103,2.878 2.467,1.919 4.111,4.66 4.934,8.224 z" style="fill:#000000;fill-opacity:1;fill-rule:nonzero;stroke:none" transform="matrix(0.35277776,0,0,-0.35277776,85.368863,144.89874)" clip-path="url(#clipPath580)"></path><path id="path581" d="m 0,0 v -10.417 c 3.198,4.386 6.785,7.583 10.76,9.594 3.974,2.009 8.245,3.015 12.815,3.015 15.9,0 23.849,-8.772 23.849,-26.316 V -71.273 H 31.799 v 44.683 c 0,5.757 -1.052,9.799 -3.153,12.13 -2.103,2.329 -5.208,3.494 -9.32,3.494 -2.741,0 -5.276,-0.479 -7.606,-1.438 -2.331,-0.96 -4.318,-2.263 -5.963,-3.907 -1.645,-1.645 -2.947,-3.542 -3.906,-5.688 -0.96,-2.148 -1.44,-4.41 -1.44,-6.784 v -42.49 H -15.077 V 0 Z" style="fill:#000000;fill-opacity:1;fill-rule:nonzero;stroke:none" transform="matrix(0.35277776,0,0,-0.35277776,100.74419,134.79299)" clip-path="url(#clipPath582)"></path><path id="path583" d="m 0,0 c 0,4.476 -0.479,8.246 -1.439,11.308 -0.959,3.06 -2.286,5.483 -3.975,7.264 -1.692,1.782 -3.656,3.061 -5.894,3.838 -2.239,0.776 -4.592,1.165 -7.058,1.165 -5.757,0 -10.212,-2.056 -13.364,-6.168 -3.152,-4.111 -4.729,-10.371 -4.729,-18.777 0,-4.57 0.432,-8.453 1.302,-11.651 0.867,-3.199 2.101,-5.803 3.701,-7.812 1.597,-2.01 3.448,-3.474 5.552,-4.386 2.099,-0.915 4.385,-1.371 6.852,-1.371 5.665,0 10.256,1.851 13.775,5.551 3.516,3.701 5.277,9.48 5.277,17.338 z m 0.137,-27.275 c -2.926,-4.022 -6.236,-7.037 -9.937,-9.046 -3.701,-2.008 -8.019,-3.016 -12.952,-3.016 -5.118,0 -9.55,0.915 -13.295,2.742 -3.748,1.827 -6.854,4.407 -9.321,7.744 -2.467,3.334 -4.318,7.309 -5.551,11.924 -1.233,4.613 -1.85,9.708 -1.85,15.282 0,5.21 0.638,10.075 1.919,14.598 1.278,4.523 3.152,8.451 5.62,11.787 2.466,3.334 5.503,6.007 9.113,8.018 3.609,2.009 7.79,3.106 12.542,3.291 0.913,0.089 1.827,0.113 2.742,0.067 0.911,-0.047 1.871,-0.115 2.877,-0.205 3.198,-0.366 6.282,-1.257 9.252,-2.672 2.968,-1.419 5.825,-3.77 8.567,-7.059 V 60.72 H 15.351 V -37.143 H 0.137 Z" style="fill:#000000;fill-opacity:1;fill-rule:nonzero;stroke:none" transform="matrix(0.35277776,0,0,-0.35277776,140.58652,146.83316)" clip-path="url(#clipPath584)"></path><path id="path585" d="m 0,0 c -4.661,-0.274 -8.429,-0.778 -11.308,-1.509 -2.878,-0.731 -5.094,-1.667 -6.648,-2.809 -1.554,-1.143 -2.582,-2.467 -3.083,-3.975 -0.503,-1.508 -0.754,-3.13 -0.754,-4.866 0,-3.107 0.981,-5.529 2.946,-7.264 1.964,-1.737 4.866,-2.604 8.704,-2.604 6.854,0 11.925,1.735 15.214,5.208 3.29,3.472 4.935,8.177 4.935,14.117 V 0.41 Z m 10.28,-23.987 c -2.652,-3.199 -5.894,-5.848 -9.731,-7.95 -3.838,-2.1 -8.499,-3.151 -13.981,-3.151 -3.382,0 -6.534,0.434 -9.458,1.302 -2.924,0.867 -5.461,2.169 -7.606,3.906 -2.148,1.734 -3.838,3.952 -5.072,6.647 -1.233,2.695 -1.85,5.871 -1.85,9.526 0,4.934 1.096,8.931 3.289,11.993 2.194,3.06 5.048,5.46 8.567,7.196 3.516,1.735 7.47,2.947 11.856,3.632 4.386,0.686 8.772,1.118 13.157,1.302 l 10.555,0.549 v 3.015 c 0,5.39 -1.302,9.115 -3.907,11.171 -2.604,2.056 -6.009,3.084 -10.211,3.084 -4.844,0 -8.429,-0.823 -10.76,-2.468 -2.329,-1.644 -3.86,-4.022 -4.591,-7.127 l -14.254,1.508 c 1.278,6.942 4.43,12.014 9.457,15.214 5.024,3.197 11.925,4.796 20.697,4.796 5.664,0 10.348,-0.731 14.048,-2.192 3.701,-1.463 6.648,-3.474 8.841,-6.031 2.193,-2.559 3.721,-5.598 4.591,-9.115 0.868,-3.518 1.303,-7.38 1.303,-11.581 V -33.307 H 10.28 Z" style="fill:#000000;fill-opacity:1;fill-rule:nonzero;stroke:none" transform="matrix(0.35277776,0,0,-0.35277776,163.21507,148.18666)" clip-path="url(#clipPath586)"></path><path id="path587" d="M 0,0 V 12.336 H 11.239 V 31.524 H 26.727 V 12.336 H 44.409 V 0 H 26.727 v -37.281 c 0,-3.655 0.754,-6.305 2.261,-7.949 1.508,-1.645 3.723,-2.468 6.648,-2.468 1.552,0 3.037,0.09 4.454,0.274 1.417,0.183 2.81,0.502 4.181,0.959 l 2.331,-11.649 c -4.387,-1.461 -9.139,-2.193 -14.255,-2.193 -7.86,0 -13.342,2.032 -16.447,6.099 -3.109,4.065 -4.661,10.164 -4.661,18.298 V 0 Z" style="fill:#000000;fill-opacity:1;fill-rule:nonzero;stroke:none" transform="matrix(0.35277776,0,0,-0.35277776,175.01294,139.14493)" clip-path="url(#clipPath588)"></path><path id="path589" d="m 0,0 c -4.661,-0.274 -8.429,-0.778 -11.308,-1.509 -2.878,-0.731 -5.094,-1.667 -6.648,-2.809 -1.554,-1.143 -2.582,-2.467 -3.083,-3.975 -0.503,-1.508 -0.754,-3.13 -0.754,-4.866 0,-3.107 0.981,-5.529 2.946,-7.264 1.964,-1.737 4.866,-2.604 8.704,-2.604 6.854,0 11.925,1.735 15.214,5.208 3.29,3.472 4.935,8.177 4.935,14.117 V 0.41 Z m 10.28,-23.987 c -2.652,-3.199 -5.894,-5.848 -9.731,-7.95 -3.838,-2.1 -8.499,-3.151 -13.981,-3.151 -3.382,0 -6.534,0.434 -9.458,1.302 -2.924,0.867 -5.461,2.169 -7.606,3.906 -2.148,1.734 -3.838,3.952 -5.072,6.647 -1.233,2.695 -1.85,5.871 -1.85,9.526 0,4.934 1.096,8.931 3.289,11.993 2.194,3.06 5.048,5.46 8.567,7.196 3.516,1.735 7.47,2.947 11.856,3.632 4.386,0.686 8.772,1.118 13.157,1.302 l 10.555,0.549 v 3.015 c 0,5.39 -1.302,9.115 -3.907,11.171 -2.604,2.056 -6.009,3.084 -10.211,3.084 -4.844,0 -8.429,-0.823 -10.76,-2.468 -2.329,-1.644 -3.86,-4.022 -4.591,-7.127 l -14.254,1.508 c 1.278,6.942 4.43,12.014 9.457,15.214 5.024,3.197 11.925,4.796 20.697,4.796 5.664,0 10.348,-0.731 14.048,-2.192 3.701,-1.463 6.648,-3.474 8.841,-6.031 2.193,-2.559 3.721,-5.598 4.591,-9.115 0.868,-3.518 1.303,-7.38 1.303,-11.581 V -33.307 H 10.28 Z" style="fill:#000000;fill-opacity:1;fill-rule:nonzero;stroke:none" transform="matrix(0.35277776,0,0,-0.35277776,205.95826,148.18666)" clip-path="url(#clipPath590)"></path></g></svg>