<svg xmlns="http://www.w3.org/2000/svg" xmlns:xlink="http://www.w3.org/1999/xlink" xmlns:lucid="lucid" width="1245" height="442"><g transform="translate(-439.0000000000389 -259)" lucid:page-tab-id="0_0"><path d="M460 455.65a6 6 0 0 1 6-6h148a6 6 0 0 1 6 6v48a6 6 0 0 1-6 6H466a6 6 0 0 1-6-6z" stroke="#000" stroke-width="2" fill-opacity="0"/><path d="M476 449.65v60m128-60v60" stroke="#000" stroke-width="2" fill="none"/><use xlink:href="#a" transform="matrix(1,0,0,1,485.0000000000389,454.6458333333929) translate(4.475308641975303 29.444444444444443)"/><use xlink:href="#b" transform="matrix(1,0,0,1,485.0000000000389,454.6458333333929) translate(58.672839506172835 29.444444444444443)"/><use xlink:href="#c" transform="matrix(1,0,0,1,485.0000000000389,454.6458333333929) translate(71.01851851851852 29.444444444444443)"/><path d="M860 406a6 6 0 0 1 6-6h228a6 6 0 0 1 6 6v48a6 6 0 0 1-6 6H866a6 6 0 0 1-6-6z" stroke="#000" stroke-width="2" fill-opacity="0"/><path d="M884 400v60m192-60v60" stroke="#000" stroke-width="2" fill="none"/><use xlink:href="#d" transform="matrix(1,0,0,1,895,405) translate(6.799999999999997 32.42222222222222)"/><path d="M860 506a6 6 0 0 1 6-6h228a6 6 0 0 1 6 6v48a6 6 0 0 1-6 6H866a6 6 0 0 1-6-6z" stroke="#000" stroke-width="2" fill-opacity="0"/><path d="M884 500v60m192-60v60" stroke="#000" stroke-width="2" fill="none"/><use xlink:href="#e" transform="matrix(1,0,0,1,895,505) translate(24.388888888888886 32.42222222222222)"/><path d="M1180 626a6 6 0 0 1 6-6h148a6 6 0 0 1 6 6v48a6 6 0 0 1-6 6h-148a6 6 0 0 1-6-6z" stroke="#000" stroke-width="2" fill-opacity="0"/><path d="M1196 620v60m128-60v60" stroke="#000" stroke-width="2" fill="none"/><use xlink:href="#f" transform="matrix(1,0,0,1,1205,625) translate(-3.37777777777778 32.42222222222222)"/><path d="M1180 286a6 6 0 0 1 6-6h148a6 6 0 0 1 6 6v48a6 6 0 0 1-6 6h-148a6 6 0 0 1-6-6z" stroke="#000" stroke-width="2" fill-opacity="0"/><path d="M1196 280v60m128-60v60" stroke="#000" stroke-width="2" fill="none"/><use xlink:href="#g" transform="matrix(1,0,0,1,1205,285) translate(3.5777777777777757 32.42222222222222)"/><path d="M857 442.5h-13v73h13" stroke="#4c535d" stroke-width="4" fill="none"/><path d="M857 434.5h-14a7 7 0 0 0-7 7v75a7 7 0 0 0 7 7h14" stroke="#4c535d" stroke-width="4" fill="none"/><path d="M859 444.48h-2.05v-3.96H859zM859 436.48h-2.05v-3.96H859zM859 517.48h-2.05v-3.96H859zM859 525.48h-2.05v-3.96H859z" stroke="#4c535d" stroke-width=".05" fill="#4c535d"/><path d="M702 480h49.75A28.25 28.25 0 0 0 780 451.75a28.25 28.25 0 0 1 28.25-28.25h28M702.05 480H700" stroke="#000" stroke-width="4" fill="none"/><path d="M852.53 423.5l-14.27 4.63v-9.26z" stroke="#000" stroke-width="4"/><path d="M702 480h49.75A28.25 28.25 0 0 1 780 508.25a28.25 28.25 0 0 0 28.25 28.25h28M702.05 480H700" stroke="#000" stroke-width="4" fill="none"/><path d="M852.53 536.5l-14.27 4.63v-9.26z" stroke="#000" stroke-width="4"/><path d="M1103 420h14.26" stroke="#000" stroke-width="4" fill="none"/><path d="M1103.05 421.98H1101v-3.96h2.05z" stroke="#000" stroke-width=".05"/><path d="M1133.53 420l-14.27 4.63v-9.26z" stroke="#000" stroke-width="4"/><path d="M1103 540h12.7" stroke="#000" stroke-width="4" fill="none"/><path d="M1103.05 541.98H1101V538h2.05z" stroke="#000" stroke-width=".05"/><path d="M1131.97 540l-14.27 4.63v-9.26z" stroke="#000" stroke-width="4"/><path d="M621 480h57.5M621.03 480H620" stroke="#000" stroke-width="2" fill="none"/><path d="M693.76 480l-14.26 4.63v-9.26z" stroke="#000" stroke-width="2"/><path d="M1122 420h132a6 6 0 0 0 6-6v-50.26M1122.05 420H1120" stroke="#000" stroke-width="4" fill="none"/><path d="M1260 347.47l4.63 14.27h-9.27z" stroke="#000" stroke-width="4"/><path d="M1122 540h114.3a6 6 0 0 1 6 6v50.26M1122.05 540H1120" stroke="#000" stroke-width="4" fill="none"/><path d="M1242.3 612.53l-4.64-14.27h9.27z" stroke="#000" stroke-width="4"/><path d="M1168.94 480h223.62" stroke="#000" stroke-width="10" fill="none"/><path d="M1152.82 480l12.9-7.64v15.28zM1408.68 480l-12.9 7.64v-15.28z" stroke="#000" stroke-width="10"/><path d="M1103 517.24h1a6 6 0 0 0 6-6V486a6 6 0 0 1 6-6h1.26" stroke="#000" stroke-width="4" fill="none"/><path d="M1103.05 519.22H1101v-3.95h2.05z" stroke="#000" stroke-width=".05"/><path d="M1133.53 480l-14.27 4.63v-9.26z" stroke="#000" stroke-width="4"/><path d="M1102 440h2a6 6 0 0 1 6 6v28a6 6 0 0 0 6 6h24M1102.05 440H1100M1139.95 480h2.05M623 479.65h22a15 15 0 0 0 15-15V325a15 15 0 0 1 15-15h481.26" stroke="#000" stroke-width="4" fill="none"/><path d="M623.05 481.62H621v-3.95h2.05z" stroke="#000" stroke-width=".05"/><path d="M1172.53 310l-14.27 4.63v-9.26z" stroke="#000" stroke-width="4"/><path d="M623 479.65h22a15 15 0 0 1 15 15V635a15 15 0 0 0 15 15h481.26" stroke="#000" stroke-width="4" fill="none"/><path d="M623.05 481.62H621v-3.95h2.05z" stroke="#000" stroke-width=".05"/><path d="M1172.53 650l-14.27 4.63v-9.26z" stroke="#000" stroke-width="4"/><path d="M700 386a6 6 0 0 1 6-6h428a6 6 0 0 1 6 6v188a6 6 0 0 1-6 6H706a6 6 0 0 1-6-6z" stroke="#000" stroke-width="6" fill-opacity="0"/><path d="M1280.1 583.55V485" stroke="#000" stroke-width="10" fill="none"/><path d="M1280.1 602.82l-4.63-14.27h9.27z" stroke="#000" stroke-width="10"/><path d="M1280.1 485.13V480" stroke="#000" stroke-width="10" fill="none"/><path d="M1420 443a23 23 0 0 1 23-23h94a23 23 0 0 1 23 23v74a23 23 0 0 1-23 23h-94a23 23 0 0 1-23-23z" stroke="#000" stroke-width="3" fill-opacity="0"/><use xlink:href="#h" transform="matrix(1,0,0,1,1432,432) translate(17 31.51111111111111)"/><use xlink:href="#i" transform="matrix(1,0,0,1,1432,432) translate(28.833333333333336 55.68888888888888)"/><use xlink:href="#j" transform="matrix(1,0,0,1,1432,432) translate(37.62222222222222 79.86666666666666)"/><path d="M1342.5 309.93h4.62m6.15 0h9.23m6.15 0h9.23m6.15 0h9.23m6.15 0h9.24m6.16 0h9.23m6.15 0h9.23m6.16 0h9.23m6.14 0h9.23m6.15 0h9.24m6.15 0h9.24m6.15 0h9.22m6.15 0h9.23m6.15 0h9.23m6.16 0h9.23m6.15 0h9.23m6.15 0h9.23m6.15 0h9.23m6.17 0h4.6" stroke="#000" stroke-width="3" fill="none"/><path d="M1342.54 311.4H1341v-2.95h1.54z" stroke="#000" stroke-width=".05"/><path d="M1635.15 309.93l-14.27 4.63v-9.27z" stroke="#000" stroke-width="3"/><path d="M1342.5 652.65h4.62m6.15 0h9.23m6.15 0h9.23m6.15 0h9.23m6.15 0h9.24m6.16 0h9.23m6.15 0h9.23m6.16 0h9.23m6.14 0h9.23m6.15 0h9.24m6.15 0h9.24m6.15 0h9.22m6.15 0h9.23m6.15 0h9.23m6.16 0h9.23m6.15 0h9.23m6.15 0h9.23m6.15 0h9.23m6.17 0h4.6" stroke="#000" stroke-width="3" fill="none"/><path d="M1342.54 654.12H1341v-2.95h1.54z" stroke="#000" stroke-width=".05"/><path d="M1635.15 652.65l-14.27 4.63V648z" stroke="#000" stroke-width="3"/><path d="M1430 286a6 6 0 0 1 6-6h108a6 6 0 0 1 6 6v8a6 6 0 0 1-6 6h-108a6 6 0 0 1-6-6z" fill="none"/><g><use xlink:href="#k" transform="matrix(1,0,0,1,1430,280) translate(28.277777777777775 19.51111111111111)"/></g><path d="M1430 666a6 6 0 0 1 6-6h108a6 6 0 0 1 6 6v8a6 6 0 0 1-6 6h-108a6 6 0 0 1-6-6z" fill="none"/><g><use xlink:href="#l" transform="matrix(1,0,0,1,1430,660) translate(28.144444444444442 19.51111111111111)"/></g><defs><path d="M240 0l2-218c-23 76-54 145-80 218h-23L58-218 59 0H30v-248h44l77 211c21-75 51-140 76-211h43V0h-30" id="m"/><path d="M141-36C126-15 110 5 73 4 37 3 15-17 15-53c-1-64 63-63 125-63 3-35-9-54-41-54-24 1-41 7-42 31l-33-3c5-37 33-52 76-52 45 0 72 20 72 64v82c-1 20 7 32 28 27v20c-31 9-61-2-59-35zM48-53c0 20 12 33 32 33 41-3 63-29 60-74-43 2-92-5-92 41" id="n"/><path d="M24-231v-30h32v30H24zM24 0v-190h32V0H24" id="o"/><path d="M117-194c89-4 53 116 60 194h-32v-121c0-31-8-49-39-48C34-167 62-67 57 0H25l-1-190h30c1 10-1 24 2 32 11-22 29-35 61-36" id="p"/><g id="a"><use transform="matrix(0.06172839506172839,0,0,0.06172839506172839,0,0)" xlink:href="#m"/><use transform="matrix(0.06172839506172839,0,0,0.06172839506172839,18.456790123456788,0)" xlink:href="#n"/><use transform="matrix(0.06172839506172839,0,0,0.06172839506172839,30.80246913580247,0)" xlink:href="#o"/><use transform="matrix(0.06172839506172839,0,0,0.06172839506172839,35.67901234567901,0)" xlink:href="#p"/></g><path d="M0 4l72-265h28L28 4H0" id="q"/><use transform="matrix(0.06172839506172839,0,0,0.06172839506172839,0,0)" xlink:href="#q" id="b"/><path d="M212-179c-10-28-35-45-73-45-59 0-87 40-87 99 0 60 29 101 89 101 43 0 62-24 78-52l27 14C228-24 195 4 139 4 59 4 22-46 18-125c-6-104 99-153 187-111 19 9 31 26 39 46" id="r"/><path d="M30 0v-248h33v221h125V0H30" id="s"/><path d="M33 0v-248h34V0H33" id="t"/><g id="c"><use transform="matrix(0.06172839506172839,0,0,0.06172839506172839,0,0)" xlink:href="#r"/><use transform="matrix(0.06172839506172839,0,0,0.06172839506172839,15.987654320987653,0)" xlink:href="#s"/><use transform="matrix(0.06172839506172839,0,0,0.06172839506172839,28.333333333333332,0)" xlink:href="#t"/></g><path d="M308 0L14-686h113c81 194 161 389 242 583h8c80-195 160-388 240-583h108L431 0H308" id="u"/><path d="M579-179C568-44 467 10 321 12 141 11 48-80 48-263s92-274 273-275c187 0 274 102 262 299H145c2 118 61 176 179 176 88-3 152-37 163-116h92zm-94-129c-1-106-62-154-166-155-107 1-166 54-173 155h339" id="v"/><path d="M352-447c-129-13-186 55-186 168V0H73v-526h75l7 92h7c18-72 95-126 190-96v83" id="w"/><path d="M73-627v-96h93v96H73zM73 0v-526h93V0H73" id="x"/><path d="M323-656c-60 0-124-9-124 55v75h124v76H199V0h-93v-450H14v-76h92c-8-120 11-211 129-206 32 0 63 4 88 12v64" id="y"/><path d="M558-197C553-54 460 9 314 12 134 12 47-82 47-263s88-274 268-275c147 2 240 64 243 209h-94c-1-92-58-132-150-133-122 2-170 75-170 209 0 121 55 188 172 189 91-1 149-43 151-133h91" id="z"/><path d="M452-75c-46 53-119 87-216 87C128 9 45-24 45-136c0-184 220-169 409-176 12-116-37-156-149-151-79 2-147 14-144 94H70c-8-135 109-167 244-169 136 1 233 38 233 169v268c-5 44 38 37 77 37v61c-21 7-48 15-76 14-61 2-83-34-89-86h-7zm-311-65c1 60 55 76 115 76 114 0 209-48 198-181-113 1-213 2-278 39-24 15-35 37-35 66" id="A"/><path d="M595-263C594-81 503 11 322 12 141 11 48-81 48-263c0-183 92-274 274-275 181 0 273 93 273 275zm-450-11c0 135 50 209 177 210 126-1 176-75 176-210 0-123-57-186-176-188-119 2-177 65-177 188" id="B"/><path d="M332-458c-95 6-166 59-166 158V0H73v-526h74l8 85h8c41-60 105-96 200-97 127 1 194 58 193 188V0h-94v-335c2-88-44-124-130-123" id="C"/><path d="M527-153C527-22 417 12 283 12 148 12 31-26 40-164h93c-5 87 72 103 153 103 70 0 146-13 146-79 0-84-101-77-174-96-95-25-201-38-201-154 0-118 109-148 233-148s225 38 222 162h-94c0-72-59-89-131-89-64 0-129 9-136 68 7 67 91 65 151 81 104 27 225 34 225 163" id="D"/><g id="d"><use transform="matrix(0.022222222222222223,0,0,0.022222222222222223,0,0)" xlink:href="#u"/><use transform="matrix(0.022222222222222223,0,0,0.022222222222222223,15.311111111111114,0)" xlink:href="#v"/><use transform="matrix(0.022222222222222223,0,0,0.022222222222222223,29.333333333333336,0)" xlink:href="#w"/><use transform="matrix(0.022222222222222223,0,0,0.022222222222222223,37.488888888888894,0)" xlink:href="#x"/><use transform="matrix(0.022222222222222223,0,0,0.022222222222222223,42.777777777777786,0)" xlink:href="#y"/><use transform="matrix(0.022222222222222223,0,0,0.022222222222222223,50.17777777777778,0)" xlink:href="#x"/><use transform="matrix(0.022222222222222223,0,0,0.022222222222222223,55.466666666666676,0)" xlink:href="#z"/><use transform="matrix(0.022222222222222223,0,0,0.022222222222222223,68.91111111111113,0)" xlink:href="#A"/><use transform="matrix(0.022222222222222223,0,0,0.022222222222222223,82.84444444444446,0)" xlink:href="#z"/><use transform="matrix(0.022222222222222223,0,0,0.022222222222222223,96.28888888888892,0)" xlink:href="#x"/><use transform="matrix(0.022222222222222223,0,0,0.022222222222222223,101.5777777777778,0)" xlink:href="#B"/><use transform="matrix(0.022222222222222223,0,0,0.022222222222222223,115.88888888888891,0)" xlink:href="#C"/><use transform="matrix(0.022222222222222223,0,0,0.022222222222222223,129.73333333333335,0)" xlink:href="#v"/><use transform="matrix(0.022222222222222223,0,0,0.022222222222222223,143.75555555555556,0)" xlink:href="#D"/></g><path d="M97 0v-686h560v87H199v213h419v87H199V0H97" id="E"/><path d="M73 0v-723h93V0H73" id="F"/><path d="M262 133c-35 48-136 66-215 43v-65c72 3 131-1 160-45 13-16 24-39 35-66L10-526h100c60 142 123 281 179 428h6c48-146 104-285 155-428h96C466-329 395-121 307 69c-13 25-28 47-45 64" id="G"/><path d="M315-4c-24 10-60 15-93 16-83 1-119-43-119-125v-337H19v-76h86l18-149h73v149h119v76H196v323c1 43 9 63 55 63h64v60" id="H"/><path d="M324-458c-93 3-158 61-158 158V0H73v-526h74l8 85h8c40-59 99-96 192-97 88 1 143 30 167 97h8c40-60 102-95 195-97 123 1 183 61 183 187V0h-93v-336c1-84-40-125-122-122-92 3-156 62-156 158V0h-93v-336c2-84-39-125-120-122" id="I"/><g id="e"><use transform="matrix(0.022222222222222223,0,0,0.022222222222222223,0,0)" xlink:href="#E"/><use transform="matrix(0.022222222222222223,0,0,0.022222222222222223,15.488888888888889,0)" xlink:href="#x"/><use transform="matrix(0.022222222222222223,0,0,0.022222222222222223,20.77777777777778,0)" xlink:href="#F"/><use transform="matrix(0.022222222222222223,0,0,0.022222222222222223,26.066666666666666,0)" xlink:href="#v"/><use transform="matrix(0.022222222222222223,0,0,0.022222222222222223,40.08888888888889,0)" xlink:href="#D"/><use transform="matrix(0.022222222222222223,0,0,0.022222222222222223,52.733333333333334,0)" xlink:href="#G"/><use transform="matrix(0.022222222222222223,0,0,0.022222222222222223,65.08888888888889,0)" xlink:href="#D"/><use transform="matrix(0.022222222222222223,0,0,0.022222222222222223,77.73333333333333,0)" xlink:href="#H"/><use transform="matrix(0.022222222222222223,0,0,0.022222222222222223,85.53333333333333,0)" xlink:href="#v"/><use transform="matrix(0.022222222222222223,0,0,0.022222222222222223,99.55555555555556,0)" xlink:href="#I"/></g><path d="M770-343C768-110 633 0 400 0H97v-686h303c233 2 369 109 370 343zm-105 11c4-184-93-267-268-267H199v512h198c167-2 264-76 268-245" id="J"/><path d="M232 0L10-526h100c56 140 117 274 167 420h6c51-145 111-281 167-420h96L324 0h-92" id="K"/><g id="f"><use transform="matrix(0.022222222222222223,0,0,0.022222222222222223,0,0)" xlink:href="#J"/><use transform="matrix(0.022222222222222223,0,0,0.022222222222222223,18.555555555555557,0)" xlink:href="#v"/><use transform="matrix(0.022222222222222223,0,0,0.022222222222222223,32.57777777777778,0)" xlink:href="#y"/><use transform="matrix(0.022222222222222223,0,0,0.022222222222222223,39.97777777777778,0)" xlink:href="#x"/><use transform="matrix(0.022222222222222223,0,0,0.022222222222222223,45.26666666666667,0)" xlink:href="#C"/><use transform="matrix(0.022222222222222223,0,0,0.022222222222222223,59.111111111111114,0)" xlink:href="#x"/><use transform="matrix(0.022222222222222223,0,0,0.022222222222222223,64.4,0)" xlink:href="#H"/><use transform="matrix(0.022222222222222223,0,0,0.022222222222222223,72.2,0)" xlink:href="#x"/><use transform="matrix(0.022222222222222223,0,0,0.022222222222222223,77.4888888888889,0)" xlink:href="#K"/><use transform="matrix(0.022222222222222223,0,0,0.022222222222222223,89.8,0)" xlink:href="#B"/><use transform="matrix(0.022222222222222223,0,0,0.022222222222222223,104.11111111111111,0)" xlink:href="#D"/></g><path d="M743-483c-1 97-51 167-126 194L764 0H651L516-271H199V0H97v-686h438c133 1 204 75 208 203zm-103 1c-1-77-45-116-122-117H199v242h319c76 1 123-50 122-125" id="L"/><path d="M355 12c-86-1-146-30-183-82h-6v247H73v-703h74l9 79h7c38-57 97-90 185-91 167 2 237 104 237 277C584-95 515 9 355 12zM165-270c0 127 46 199 164 202 120 0 159-78 159-205 0-117-47-184-159-185-114 2-164 70-164 188" id="M"/><g id="g"><use transform="matrix(0.022222222222222223,0,0,0.022222222222222223,0,0)" xlink:href="#L"/><use transform="matrix(0.022222222222222223,0,0,0.022222222222222223,17.822222222222223,0)" xlink:href="#v"/><use transform="matrix(0.022222222222222223,0,0,0.022222222222222223,31.844444444444445,0)" xlink:href="#M"/><use transform="matrix(0.022222222222222223,0,0,0.022222222222222223,45.91111111111111,0)" xlink:href="#B"/><use transform="matrix(0.022222222222222223,0,0,0.022222222222222223,60.22222222222222,0)" xlink:href="#w"/><use transform="matrix(0.022222222222222223,0,0,0.022222222222222223,68.37777777777778,0)" xlink:href="#H"/><use transform="matrix(0.022222222222222223,0,0,0.022222222222222223,76.17777777777778,0)" xlink:href="#v"/><use transform="matrix(0.022222222222222223,0,0,0.022222222222222223,90.2,0)" xlink:href="#D"/></g><path d="M733-94C673-22 573 11 444 12 198 12 67-99 67-343c2-243 148-355 393-355 196 0 349 56 356 248H714c-4-131-118-159-252-161-187 1-290 83-290 279 0 179 100 257 275 257 162-1 271-46 268-206H439v-84h377V0h-72" id="N"/><path d="M615 31c-5 98-73 155-175 155-171 0-417 52-418-130C21-3 66-44 110-61c-32-14-54-44-55-86 0-52 43-89 92-96-43-25-76-67-77-128 5-128 107-166 244-167 47 0 89 6 124 17 47-16 81-47 93-92h91c-7 72-51 113-118 126 33 26 54 62 55 116-2 163-168 173-345 167-34-1-64 13-64 46 1 33 32 47 68 47h257c82-2 141 62 140 142zM117 43c-1 43 33 74 76 73h245c47-1 79-28 82-73 1-43-29-74-71-74H193c-41-1-77 32-76 74zm48-414c0 78 66 97 150 98 87 0 150-23 150-98s-63-98-150-98-150 23-150 98" id="O"/><g id="h"><use transform="matrix(0.022222222222222223,0,0,0.022222222222222223,0,0)" xlink:href="#N"/><use transform="matrix(0.022222222222222223,0,0,0.022222222222222223,20.11111111111111,0)" xlink:href="#B"/><use transform="matrix(0.022222222222222223,0,0,0.022222222222222223,34.422222222222224,0)" xlink:href="#B"/><use transform="matrix(0.022222222222222223,0,0,0.022222222222222223,48.733333333333334,0)" xlink:href="#O"/><use transform="matrix(0.022222222222222223,0,0,0.022222222222222223,62.68888888888889,0)" xlink:href="#F"/><use transform="matrix(0.022222222222222223,0,0,0.022222222222222223,67.97777777777777,0)" xlink:href="#v"/></g><g id="i"><use transform="matrix(0.022222222222222223,0,0,0.022222222222222223,0,0)" xlink:href="#J"/><use transform="matrix(0.022222222222222223,0,0,0.022222222222222223,18.555555555555557,0)" xlink:href="#w"/><use transform="matrix(0.022222222222222223,0,0,0.022222222222222223,26.711111111111112,0)" xlink:href="#x"/><use transform="matrix(0.022222222222222223,0,0,0.022222222222222223,32,0)" xlink:href="#K"/><use transform="matrix(0.022222222222222223,0,0,0.022222222222222223,44.31111111111111,0)" xlink:href="#v"/></g><path d="M19 0l310-686h126L765 0H654l-74-166H198L125 0H19zm217-252h305c-50-115-103-227-148-346h-8c-47 120-98 231-149 346" id="P"/><path d="M721-475c0 132-79 214-213 214H199V0H97v-686h413c134 2 211 79 211 211zm-103 1c-1-81-45-124-126-125H199v251h293c78 1 127-49 126-126" id="Q"/><path d="M97 0v-686h102V0H97" id="R"/><g id="j"><use transform="matrix(0.022222222222222223,0,0,0.022222222222222223,0,0)" xlink:href="#P"/><use transform="matrix(0.022222222222222223,0,0,0.022222222222222223,17.422222222222224,0)" xlink:href="#Q"/><use transform="matrix(0.022222222222222223,0,0,0.022222222222222223,34.17777777777778,0)" xlink:href="#R"/></g><g id="k"><use transform="matrix(0.022222222222222223,0,0,0.022222222222222223,0,0)" xlink:href="#Q"/><use transform="matrix(0.022222222222222223,0,0,0.022222222222222223,16.755555555555556,0)" xlink:href="#J"/><use transform="matrix(0.022222222222222223,0,0,0.022222222222222223,35.31111111111112,0)" xlink:href="#E"/><use transform="matrix(0.022222222222222223,0,0,0.022222222222222223,50.800000000000004,0)" xlink:href="#D"/></g><path d="M778-250C773-60 628 12 434 12 195 12 65-104 65-343c-2-233 136-356 368-355 195 3 340 72 344 263H676c-3-134-107-174-244-176-175 2-262 93-262 280 0 173 95 254 265 256 137-2 240-42 243-175h100" id="S"/><path d="M162-215C152-94 266-74 382-74c101 0 215-13 215-109 0-84-90-94-163-114-125-29-272-41-334-133-14-22-21-50-21-83 10-151 144-185 307-185 162 0 292 44 292 206H577c6-133-187-129-302-108-49 13-92 31-92 81 0 79 92 88 163 105 126 30 272 41 334 134 15 22 22 50 22 83C699-30 556 12 385 12 207 12 52-30 60-215h102" id="T"/><g id="l"><use transform="matrix(0.022222222222222223,0,0,0.022222222222222223,0,0)" xlink:href="#S"/><use transform="matrix(0.022222222222222223,0,0,0.022222222222222223,18.644444444444446,0)" xlink:href="#T"/><use transform="matrix(0.022222222222222223,0,0,0.022222222222222223,35.53333333333333,0)" xlink:href="#u"/><use transform="matrix(0.022222222222222223,0,0,0.022222222222222223,51.06666666666667,0)" xlink:href="#D"/></g></defs></g></svg>