<?xml version="1.0" encoding="UTF-8" standalone="no"?>
<svg
   width="1283"
   height="407"
   version="1.1"
   id="svg98"
   sodipodi:docname="simple.svg"
   inkscape:version="1.3.2 (091e20e, 2023-11-25)"
   xmlns:inkscape="http://www.inkscape.org/namespaces/inkscape"
   xmlns:sodipodi="http://sodipodi.sourceforge.net/DTD/sodipodi-0.dtd"
   xmlns:xlink="http://www.w3.org/1999/xlink"
   xmlns="http://www.w3.org/2000/svg"
   xmlns:svg="http://www.w3.org/2000/svg"
   xmlns:lucid="lucid">
  <defs
     id="defs99" />
  <sodipodi:namedview
     id="namedview98"
     pagecolor="#ffffff"
     bordercolor="#000000"
     borderopacity="0.25"
     inkscape:showpageshadow="2"
     inkscape:pageopacity="0.0"
     inkscape:pagecheckerboard="0"
     inkscape:deskcolor="#d1d1d1"
     showgrid="false"
     showguides="true"
     inkscape:zoom="1.0389712"
     inkscape:cx="652.0874"
     inkscape:cy="220.41035"
     inkscape:window-width="1920"
     inkscape:window-height="1016"
     inkscape:window-x="1920"
     inkscape:window-y="27"
     inkscape:window-maximized="1"
     inkscape:current-layer="g98" />
  <g
     transform="translate(1956.3711481691348 2552.3167344168846)"
     lucid:page-tab-id="0_0"
     id="g98">
    <path
       d="M-1934.87-2324.82a6 6 0 0 1 6-6h174.67a6 6 0 0 1 6 6v128a6 6 0 0 1-6 6h-174.67a6 6 0 0 1-6-6z"
       stroke="#282c33"
       stroke-width="3"
       fill="#fff"
       id="path1"
       style="fill:#000000;fill-opacity:0" />
    <path
       d="M-1916.2-2330.82v140m149.33-140v140"
       stroke="#282c33"
       stroke-width="3"
       fill="none"
       id="path2" />
    <use
       xlink:href="#a"
       transform="matrix(1,0,0,1,-1906.5378148358016,-2325.8167344168846) translate(0.1444444444444457 60.33333333333333)"
       id="use2" />
    <use
       xlink:href="#b"
       transform="matrix(1,0,0,1,-1906.5378148358016,-2325.8167344168846) translate(17.066666666666663 84.5111111111111)"
       id="use3" />
    <use
       xlink:href="#c"
       transform="matrix(1,0,0,1,-1906.5378148358016,-2325.8167344168846) translate(51.17777777777778 84.5111111111111)"
       id="use4" />
    <path
       d="M-1745.2-2260.82h48.2"
       stroke="#3a414a"
       stroke-width="3"
       fill="none"
       id="path4" />
    <path
       d="M-1745.17-2259.34h-1.53v-2.95h1.53z"
       stroke="#3a414a"
       stroke-width=".05"
       fill="#3a414a"
       id="path5" />
    <path
       d="M-1681.22-2260.82l-14.27 4.64v-9.27z"
       stroke="#3a414a"
       stroke-width="3"
       fill="#3a414a"
       id="path6" />
    <path
       d="M-1674.87-2324.82a6 6 0 0 1 6-6h174.67a6 6 0 0 1 6 6v128a6 6 0 0 1-6 6h-174.67a6 6 0 0 1-6-6z"
       stroke="#282c33"
       stroke-width="3"
       fill="#fff"
       id="path7"
       style="fill:#000000;fill-opacity:0" />
    <path
       d="M-1656.2-2330.82v140m149.33-140v140"
       stroke="#282c33"
       stroke-width="3"
       fill="none"
       id="path8" />
    <use
       xlink:href="#d"
       transform="matrix(1,0,0,1,-1646.5378148358016,-2325.8167344168846) translate(47.01111111111111 72.42222222222222)"
       id="use8" />
    <path
       d="M-1414.87-2324.82a6 6 0 0 1 6-6h174.67a6 6 0 0 1 6 6v128a6 6 0 0 1-6 6h-174.67a6 6 0 0 1-6-6z"
       stroke="#282c33"
       stroke-width="3"
       fill="#fff"
       id="path9"
       style="fill:#000000;fill-opacity:0" />
    <path
       d="M-1396.2-2330.82v140m149.33-140v140"
       stroke="#282c33"
       stroke-width="3"
       fill="none"
       id="path10" />
    <use
       xlink:href="#e"
       transform="matrix(1,0,0,1,-1386.5378148358016,-2325.8167344168846) translate(38.388888888888886 60.33333333333333)"
       id="use10" />
    <use
       xlink:href="#f"
       transform="matrix(1,0,0,1,-1386.5378148358016,-2325.8167344168846) translate(23.22222222222222 84.5111111111111)"
       id="use11" />
    <path
       d="M-1485.2-2260.82h48.2"
       stroke="#3a414a"
       stroke-width="3"
       fill="none"
       id="path11" />
    <path
       d="M-1485.17-2259.34h-1.53v-2.95h1.53z"
       stroke="#3a414a"
       stroke-width=".05"
       fill="#3a414a"
       id="path12" />
    <path
       d="M-1421.22-2260.82l-14.27 4.64v-9.27z"
       stroke="#3a414a"
       stroke-width="3"
       fill="#3a414a"
       id="path13" />
    <path
       d="M-1225.2-2260.82h54.88"
       stroke="#3a414a"
       stroke-width="3"
       fill="none"
       id="path17" />
    <path
       d="M-1225.17-2259.34h-1.53v-2.95h1.53z"
       stroke="#3a414a"
       stroke-width=".05"
       fill="#3a414a"
       id="path18" />
    <path
       d="M-1154.56-2260.82l-14.26 4.64v-9.27z"
       stroke="#3a414a"
       stroke-width="3"
       fill="#3a414a"
       id="path19" />
    <path
       d="M-1148.2-2324.82a6 6 0 0 1 6-6h174.66a6 6 0 0 1 6 6v128a6 6 0 0 1-6 6h-174.66a6 6 0 0 1-6-6z"
       stroke="#282c33"
       stroke-width="3"
       fill="#fff"
       id="path20"
       style="fill:#000000;fill-opacity:0" />
    <path
       d="M-1129.54-2330.82v140m149.34-140v140"
       stroke="#282c33"
       stroke-width="3"
       fill="none"
       id="path21" />
    <use
       xlink:href="#g"
       transform="matrix(1,0,0,1,-1119.871148169135,-2325.8167344168846) translate(10.23333333333332 72.42222222222222)"
       id="use21" />
    <path
       d="M-1485.2-2260.82h24.33a6 6 0 0 0 6-6v-188a6 6 0 0 1 6-6h11.88"
       stroke="#3a414a"
       stroke-width="3"
       fill="none"
       id="path22" />
    <path
       d="M-1485.17-2259.34h-1.53v-2.95h1.53z"
       stroke="#3a414a"
       stroke-width=".05"
       fill="#3a414a"
       id="path23" />
    <path
       d="M-1421.22-2460.82l-14.27 4.64v-9.27z"
       stroke="#3a414a"
       stroke-width="3"
       fill="#3a414a"
       id="path24" />
    <path
       d="M-1414.87-2524.82a6 6 0 0 1 6-6h174.67a6 6 0 0 1 6 6v128a6 6 0 0 1-6 6h-174.67a6 6 0 0 1-6-6z"
       stroke="#282c33"
       stroke-width="3"
       fill="#fff"
       id="path25"
       style="fill:#000000;fill-opacity:0" />
    <path
       d="M-1396.2-2530.82v140m149.33-140v140"
       stroke="#282c33"
       stroke-width="3"
       fill="none"
       id="path26" />
    <use
       xlink:href="#h"
       transform="matrix(1,0,0,1,-1386.5378148358016,-2525.8167344168846) translate(16.133333333333326 72.42222222222222)"
       id="use26" />
    <path
       d="M-1321.54-2387.82v34.88"
       stroke="#3a414a"
       stroke-width="3"
       fill="none"
       id="path27" />
    <path
       d="M-1320.06-2387.78h-2.95v-1.54h2.94z"
       stroke="#3a414a"
       stroke-width=".05"
       fill="#3a414a"
       id="path28" />
    <path
       d="M-1321.54-2337.17l-4.63-14.27h9.27z"
       stroke="#3a414a"
       stroke-width="3"
       fill="#3a414a"
       id="path29" />
    <path
       d="M-958.54-2260.82h54.88"
       stroke="#3a414a"
       stroke-width="3"
       fill="none"
       id="path30" />
    <path
       d="M-958.5-2259.34h-1.54v-2.95h1.54z"
       stroke="#3a414a"
       stroke-width=".05"
       fill="#3a414a"
       id="path31" />
    <path
       d="M-887.9-2260.82l-14.26 4.64v-9.27z"
       stroke="#3a414a"
       stroke-width="3"
       fill="#3a414a"
       id="path32" />
    <path
       d="M-881.54-2324.82a6 6 0 0 1 6-6h174.67a6 6 0 0 1 6 6v128a6 6 0 0 1-6 6h-174.67a6 6 0 0 1-6-6z"
       stroke="#282c33"
       stroke-width="3"
       fill="#fff"
       id="path33"
       style="fill:#000000;fill-opacity:0" />
    <path
       d="M-862.87-2330.82v140m149.33-140v140"
       stroke="#282c33"
       stroke-width="3"
       fill="none"
       id="path34" />
    <use
       xlink:href="#i"
       transform="matrix(1,0,0,1,-853.2044815024681,-2325.8167344168846) translate(1.055555555555543 72.42222222222222)"
       id="use34" />
    <defs
       id="defs98">
      <path
         fill="#3a414a"
         d="M733-94C673-22 573 11 444 12 198 12 67-99 67-343c2-243 148-355 393-355 196 0 349 56 356 248H714c-4-131-118-159-252-161-187 1-290 83-290 279 0 179 100 257 275 257 162-1 271-46 268-206H439v-84h377V0h-72"
         id="j" />
      <path
         fill="#3a414a"
         d="M579-179C568-44 467 10 321 12 141 11 48-80 48-263s92-274 273-275c187 0 274 102 262 299H145c2 118 61 176 179 176 88-3 152-37 163-116h92zm-94-129c-1-106-62-154-166-155-107 1-166 54-173 155h339"
         id="k" />
      <path
         fill="#3a414a"
         d="M332-458c-95 6-166 59-166 158V0H73v-526h74l8 85h8c41-60 105-96 200-97 127 1 194 58 193 188V0h-94v-335c2-88-44-124-130-123"
         id="l" />
      <path
         fill="#3a414a"
         d="M352-447c-129-13-186 55-186 168V0H73v-526h75l7 92h7c18-72 95-126 190-96v83"
         id="m" />
      <path
         fill="#3a414a"
         d="M452-75c-46 53-119 87-216 87C128 9 45-24 45-136c0-184 220-169 409-176 12-116-37-156-149-151-79 2-147 14-144 94H70c-8-135 109-167 244-169 136 1 233 38 233 169v268c-5 44 38 37 77 37v61c-21 7-48 15-76 14-61 2-83-34-89-86h-7zm-311-65c1 60 55 76 115 76 114 0 209-48 198-181-113 1-213 2-278 39-24 15-35 37-35 66"
         id="n" />
      <path
         fill="#3a414a"
         d="M558-197C553-54 460 9 314 12 134 12 47-82 47-263s88-274 268-275c147 2 240 64 243 209h-94c-1-92-58-132-150-133-122 2-170 75-170 209 0 121 55 188 172 189 91-1 149-43 151-133h91"
         id="o" />
      <path
         fill="#3a414a"
         d="M73-627v-96h93v96H73zM73 0v-526h93V0H73"
         id="p" />
      <path
         fill="#3a414a"
         d="M595-263C594-81 503 11 322 12 141 11 48-81 48-263c0-183 92-274 274-275 181 0 273 93 273 275zm-450-11c0 135 50 209 177 210 126-1 176-75 176-210 0-123-57-186-176-188-119 2-177 65-177 188zm103-317l102-132h111l1 3-132 129h-82"
         id="q" />
      <g
         id="a">
        <use
           transform="matrix(0.022222222222222223,0,0,0.022222222222222223,0,0)"
           xlink:href="#j"
           id="use40" />
        <use
           transform="matrix(0.022222222222222223,0,0,0.022222222222222223,20.11111111111111,0)"
           xlink:href="#k"
           id="use41" />
        <use
           transform="matrix(0.022222222222222223,0,0,0.022222222222222223,34.13333333333333,0)"
           xlink:href="#l"
           id="use42" />
        <use
           transform="matrix(0.022222222222222223,0,0,0.022222222222222223,47.97777777777777,0)"
           xlink:href="#k"
           id="use43" />
        <use
           transform="matrix(0.022222222222222223,0,0,0.022222222222222223,62,0)"
           xlink:href="#m"
           id="use44" />
        <use
           transform="matrix(0.022222222222222223,0,0,0.022222222222222223,69.88888888888889,0)"
           xlink:href="#n"
           id="use45" />
        <use
           transform="matrix(0.022222222222222223,0,0,0.022222222222222223,83.82222222222222,0)"
           xlink:href="#o"
           id="use46" />
        <use
           transform="matrix(0.022222222222222223,0,0,0.022222222222222223,97.26666666666667,0)"
           xlink:href="#p"
           id="use47" />
        <use
           transform="matrix(0.022222222222222223,0,0,0.022222222222222223,102.55555555555556,0)"
           xlink:href="#q"
           id="use48" />
        <use
           transform="matrix(0.022222222222222223,0,0,0.022222222222222223,116.86666666666667,0)"
           xlink:href="#l"
           id="use49" />
      </g>
      <path
         fill="#3a414a"
         d="M470-79c-37 57-100 90-187 91C118 10 48-94 48-265c0-168 71-270 232-273 87 0 144 29 181 81h7v-266h93V0h-75l-9-79h-7zM145-273c0 128 40 203 158 205 119-1 165-76 165-202 0-118-49-186-163-188-112 2-160 68-160 185"
         id="r" />
      <g
         id="b">
        <use
           transform="matrix(0.022222222222222223,0,0,0.022222222222222223,0,0)"
           xlink:href="#r"
           id="use50" />
        <use
           transform="matrix(0.022222222222222223,0,0,0.022222222222222223,14.066666666666666,0)"
           xlink:href="#k"
           id="use51" />
      </g>
      <path
         fill="#3a414a"
         d="M315-4c-24 10-60 15-93 16-83 1-119-43-119-125v-337H19v-76h86l18-149h73v149h119v76H196v323c1 43 9 63 55 63h64v60"
         id="s" />
      <path
         fill="#3a414a"
         d="M595-263C594-81 503 11 322 12 141 11 48-81 48-263c0-183 92-274 274-275 181 0 273 93 273 275zm-450-11c0 135 50 209 177 210 126-1 176-75 176-210 0-123-57-186-176-188-119 2-177 65-177 188"
         id="t" />
      <path
         fill="#3a414a"
         d="M527-153C527-22 417 12 283 12 148 12 31-26 40-164h93c-5 87 72 103 153 103 70 0 146-13 146-79 0-84-101-77-174-96-95-25-201-38-201-154 0-118 109-148 233-148s225 38 222 162h-94c0-72-59-89-131-89-64 0-129 9-136 68 7 67 91 65 151 81 104 27 225 34 225 163"
         id="u" />
      <g
         id="c">
        <use
           transform="matrix(0.022222222222222223,0,0,0.022222222222222223,0,0)"
           xlink:href="#r"
           id="use52" />
        <use
           transform="matrix(0.022222222222222223,0,0,0.022222222222222223,14.066666666666666,0)"
           xlink:href="#n"
           id="use53" />
        <use
           transform="matrix(0.022222222222222223,0,0,0.022222222222222223,28,0)"
           xlink:href="#s"
           id="use54" />
        <use
           transform="matrix(0.022222222222222223,0,0,0.022222222222222223,35.8,0)"
           xlink:href="#t"
           id="use55" />
        <use
           transform="matrix(0.022222222222222223,0,0,0.022222222222222223,50.1111111111111,0)"
           xlink:href="#u"
           id="use56" />
      </g>
      <path
         fill="#3a414a"
         d="M508 9C240 28 65-84 65-343c2-242 147-355 388-355s386 113 388 355c0 178-86 286-222 331l154 142H636zM170-354C166-162 270-75 453-75s287-87 283-279c-4-177-107-257-283-257s-279 80-283 257"
         id="v" />
      <path
         fill="#3a414a"
         d="M19 0l310-686h126L765 0H654l-74-166H198L125 0H19zm217-252h305c-50-115-103-227-148-346h-8c-47 120-98 231-149 346"
         id="w" />
      <g
         id="d">
        <use
           transform="matrix(0.022222222222222223,0,0,0.022222222222222223,0,0)"
           xlink:href="#v"
           id="use57" />
        <use
           transform="matrix(0.022222222222222223,0,0,0.022222222222222223,19.555555555555554,0)"
           xlink:href="#w"
           id="use58" />
      </g>
      <path
         fill="#3a414a"
         d="M770-343C768-110 633 0 400 0H97v-686h303c233 2 369 109 370 343zm-105 11c4-184-93-267-268-267H199v512h198c167-2 264-76 268-245"
         id="x" />
      <g
         id="e">
        <use
           transform="matrix(0.022222222222222223,0,0,0.022222222222222223,0,0)"
           xlink:href="#x"
           id="use59" />
        <use
           transform="matrix(0.022222222222222223,0,0,0.022222222222222223,18.555555555555557,0)"
           xlink:href="#n"
           id="use60" />
        <use
           transform="matrix(0.022222222222222223,0,0,0.022222222222222223,32.488888888888894,0)"
           xlink:href="#s"
           id="use61" />
        <use
           transform="matrix(0.022222222222222223,0,0,0.022222222222222223,40.28888888888889,0)"
           xlink:href="#n"
           id="use62" />
      </g>
      <path
         fill="#3a414a"
         d="M615 31c-5 98-73 155-175 155-171 0-417 52-418-130C21-3 66-44 110-61c-32-14-54-44-55-86 0-52 43-89 92-96-43-25-76-67-77-128 5-128 107-166 244-167 47 0 89 6 124 17 47-16 81-47 93-92h91c-7 72-51 113-118 126 33 26 54 62 55 116-2 163-168 173-345 167-34-1-64 13-64 46 1 33 32 47 68 47h257c82-2 141 62 140 142zM117 43c-1 43 33 74 76 73h245c47-1 79-28 82-73 1-43-29-74-71-74H193c-41-1-77 32-76 74zm48-414c0 78 66 97 150 98 87 0 150-23 150-98s-63-98-150-98-150 23-150 98"
         id="y" />
      <g
         id="f">
        <use
           transform="matrix(0.022222222222222223,0,0,0.022222222222222223,0,0)"
           xlink:href="#u"
           id="use63" />
        <use
           transform="matrix(0.022222222222222223,0,0,0.022222222222222223,12.644444444444446,0)"
           xlink:href="#s"
           id="use64" />
        <use
           transform="matrix(0.022222222222222223,0,0,0.022222222222222223,20.444444444444446,0)"
           xlink:href="#t"
           id="use65" />
        <use
           transform="matrix(0.022222222222222223,0,0,0.022222222222222223,34.75555555555556,0)"
           xlink:href="#m"
           id="use66" />
        <use
           transform="matrix(0.022222222222222223,0,0,0.022222222222222223,42.644444444444446,0)"
           xlink:href="#n"
           id="use67" />
        <use
           transform="matrix(0.022222222222222223,0,0,0.022222222222222223,56.57777777777778,0)"
           xlink:href="#y"
           id="use68" />
        <use
           transform="matrix(0.022222222222222223,0,0,0.022222222222222223,70.53333333333333,0)"
           xlink:href="#k"
           id="use69" />
      </g>
      <path
         fill="#3a414a"
         d="M229 0L14-686h109c56 193 120 379 170 578h8c45-199 103-385 154-578h138c51 193 109 380 155 578h8c52-198 114-385 171-578h98L810 0H683c-53-194-114-381-160-582h-6C472-381 412-195 360 0H229"
         id="z" />
      <path
         fill="#3a414a"
         d="M73 0v-723h93V0H73"
         id="A" />
      <g
         id="g">
        <use
           transform="matrix(0.022222222222222223,0,0,0.022222222222222223,0,0)"
           xlink:href="#z"
           id="use70" />
        <use
           transform="matrix(0.022222222222222223,0,0,0.022222222222222223,22.53333333333333,0)"
           xlink:href="#m"
           id="use71" />
        <use
           transform="matrix(0.022222222222222223,0,0,0.022222222222222223,30.422222222222217,0)"
           xlink:href="#n"
           id="use72" />
        <use
           transform="matrix(0.022222222222222223,0,0,0.022222222222222223,44.355555555555554,0)"
           xlink:href="#l"
           id="use73" />
        <use
           transform="matrix(0.022222222222222223,0,0,0.022222222222222223,58.2,0)"
           xlink:href="#y"
           id="use74" />
        <use
           transform="matrix(0.022222222222222223,0,0,0.022222222222222223,72.15555555555557,0)"
           xlink:href="#A"
           id="use75" />
        <use
           transform="matrix(0.022222222222222223,0,0,0.022222222222222223,77.44444444444446,0)"
           xlink:href="#p"
           id="use76" />
        <use
           transform="matrix(0.022222222222222223,0,0,0.022222222222222223,82.73333333333335,0)"
           xlink:href="#l"
           id="use77" />
        <use
           transform="matrix(0.022222222222222223,0,0,0.022222222222222223,96.5777777777778,0)"
           xlink:href="#y"
           id="use78" />
      </g>
      <path
         fill="#3a414a"
         d="M162-215C152-94 266-74 382-74c101 0 215-13 215-109 0-84-90-94-163-114-125-29-272-41-334-133-14-22-21-50-21-83 10-151 144-185 307-185 162 0 292 44 292 206H577c6-133-187-129-302-108-49 13-92 31-92 81 0 79 92 88 163 105 126 30 272 41 334 134 15 22 22 50 22 83C699-30 556 12 385 12 207 12 52-30 60-215h102"
         id="B" />
      <path
         fill="#3a414a"
         d="M355 12c-86-1-146-30-183-82h-6v247H73v-703h74l9 79h7c38-57 97-90 185-91 167 2 237 104 237 277C584-95 515 9 355 12zM165-270c0 127 46 199 164 202 120 0 159-78 159-205 0-117-47-184-159-185-114 2-164 70-164 188"
         id="C" />
      <g
         id="h">
        <use
           transform="matrix(0.022222222222222223,0,0,0.022222222222222223,0,0)"
           xlink:href="#B"
           id="use79" />
        <use
           transform="matrix(0.022222222222222223,0,0,0.022222222222222223,16.88888888888889,0)"
           xlink:href="#o"
           id="use80" />
        <use
           transform="matrix(0.022222222222222223,0,0,0.022222222222222223,30.333333333333336,0)"
           xlink:href="#m"
           id="use81" />
        <use
           transform="matrix(0.022222222222222223,0,0,0.022222222222222223,38.488888888888894,0)"
           xlink:href="#p"
           id="use82" />
        <use
           transform="matrix(0.022222222222222223,0,0,0.022222222222222223,43.777777777777786,0)"
           xlink:href="#C"
           id="use83" />
        <use
           transform="matrix(0.022222222222222223,0,0,0.022222222222222223,57.84444444444445,0)"
           xlink:href="#s"
           id="use84" />
        <use
           transform="matrix(0.022222222222222223,0,0,0.022222222222222223,65.64444444444445,0)"
           xlink:href="#p"
           id="use85" />
        <use
           transform="matrix(0.022222222222222223,0,0,0.022222222222222223,70.93333333333334,0)"
           xlink:href="#l"
           id="use86" />
        <use
           transform="matrix(0.022222222222222223,0,0,0.022222222222222223,84.77777777777779,0)"
           xlink:href="#y"
           id="use87" />
      </g>
      <path
         fill="#3a414a"
         d="M323-656c-60 0-124-9-124 55v75h124v76H199V0h-93v-450H14v-76h92c-8-120 11-211 129-206 32 0 63 4 88 12v64"
         id="D" />
      <g
         id="i">
        <use
           transform="matrix(0.022222222222222223,0,0,0.022222222222222223,0,0)"
           xlink:href="#j"
           id="use88" />
        <use
           transform="matrix(0.022222222222222223,0,0,0.022222222222222223,20.11111111111111,0)"
           xlink:href="#m"
           id="use89" />
        <use
           transform="matrix(0.022222222222222223,0,0,0.022222222222222223,28,0)"
           xlink:href="#n"
           id="use90" />
        <use
           transform="matrix(0.022222222222222223,0,0,0.022222222222222223,41.93333333333334,0)"
           xlink:href="#D"
           id="use91" />
        <use
           transform="matrix(0.022222222222222223,0,0,0.022222222222222223,49.333333333333336,0)"
           xlink:href="#p"
           id="use92" />
        <use
           transform="matrix(0.022222222222222223,0,0,0.022222222222222223,54.62222222222223,0)"
           xlink:href="#o"
           id="use93" />
        <use
           transform="matrix(0.022222222222222223,0,0,0.022222222222222223,68.06666666666668,0)"
           xlink:href="#n"
           id="use94" />
        <use
           transform="matrix(0.022222222222222223,0,0,0.022222222222222223,82.00000000000001,0)"
           xlink:href="#o"
           id="use95" />
        <use
           transform="matrix(0.022222222222222223,0,0,0.022222222222222223,95.44444444444444,0)"
           xlink:href="#p"
           id="use96" />
        <use
           transform="matrix(0.022222222222222223,0,0,0.022222222222222223,100.73333333333336,0)"
           xlink:href="#q"
           id="use97" />
        <use
           transform="matrix(0.022222222222222223,0,0,0.022222222222222223,115.04444444444447,0)"
           xlink:href="#l"
           id="use98" />
      </g>
    </defs>
  </g>
</svg>
