<?xml version="1.0" encoding="UTF-8"?>
<svg xmlns="http://www.w3.org/2000/svg" id="CONTENIDOS" viewBox="0 0 600 300">
  <defs>
    <style>
      .cls-1 {
        fill: #181b1e;
      }
    </style>
  </defs>
  <circle class="cls-1" cx="185.11" cy="274.47" r="25.53"></circle>
  <circle class="cls-1" cx="418.73" cy="274.47" r="25.53"></circle>
  <circle class="cls-1" cx="496.6" cy="274.47" r="25.53"></circle>
  <circle class="cls-1" cx="263.14" cy="196.6" r="25.53"></circle>
  <circle class="cls-1" cx="340.69" cy="196.6" r="25.53"></circle>
  <circle class="cls-1" cx="263.14" cy="274.47" r="25.53"></circle>
  <circle class="cls-1" cx="340.69" cy="274.47" r="25.53"></circle>
  <circle class="cls-1" cx="107.23" cy="196.6" r="25.53"></circle>
  <circle class="cls-1" cx="185.11" cy="196.6" r="25.53"></circle>
  <circle class="cls-1" cx="496.6" cy="196.6" r="25.53"></circle>
  <circle class="cls-1" cx="107.23" cy="118.73" r="25.53"></circle>
  <circle class="cls-1" cx="263.14" cy="118.73" r="25.53"></circle>
  <circle class="cls-1" cx="340.69" cy="118.73" r="25.53"></circle>
  <circle class="cls-1" cx="418.73" cy="118.73" r="25.53"></circle>
  <circle class="cls-1" cx="496.6" cy="118.73" r="25.53"></circle>
  <circle class="cls-1" cx="574.47" cy="274.47" r="25.53"></circle>
  <circle class="cls-1" cx="574.47" cy="196.6" r="25.53"></circle>
  <circle class="cls-1" cx="574.47" cy="118.73" r="25.53"></circle>
  <circle class="cls-1" cx="29.36" cy="274.47" r="25.53"></circle>
  <circle class="cls-1" cx="29.36" cy="196.6" r="25.53"></circle>
  <circle class="cls-1" cx="107.23" cy="40.85" r="25.53"></circle>
  <circle class="cls-1" cx="29.36" cy="40.85" r="25.53"></circle>
  <circle class="cls-1" cx="185.11" cy="40.85" r="25.53"></circle>
  <circle class="cls-1" cx="263.14" cy="40.85" r="25.53"></circle>
  <circle class="cls-1" cx="340.69" cy="40.85" r="25.53"></circle>
  <circle class="cls-1" cx="418.73" cy="40.85" r="25.53"></circle>
  <circle class="cls-1" cx="574.47" cy="40.85" r="25.53"></circle>
</svg>
